# xmcd CD database file
#
# Track frame offsets:
#	150
#	13759
#	28994
#	46035
#	63395
#	80056
#	97783
#	114085
#	128960
#	146171
#	158479
#	178093
#	194960
#	209835
#	227583
#	243887
#	261145
#	277446
#
# Disc length: 3954 seconds
#
# Revision: 0
# Processed by: cddbd v1.5.2PL0 Copyright (c) Steve Scherf et al.
# Submitted via: CDex 1.70beta2
#
DISCID=0a0f7012
DTITLE=テレサ・テン - シングルコレクションdisk1
DYEAR=2007
DGENRE=Blues
TTITLE0=今夜かしら明日かしら
TTITLE1=雨にぬれた花
TTITLE2=空港
TTITLE3=はぐれた小鳩
TTITLE4=雪化粧
TTITLE5=遠くから愛をこめて
TTITLE6=女の生きがい
TTITLE7=夜霧
TTITLE8=夜の乗客
TTITLE9=暗くなるまで
TTITLE10=アカシアの夢
TTITLE11=満ち潮
TTITLE12=夜のフェリーボート
TTITLE13=赤坂たそがれ
TTITLE14=ふるさとはどこですか
TTITLE15=あなたに帰りたい
TTITLE16=あなたと生きる
TTITLE17=海辺のホテル
EXTD=YEAR: 2007
EXTT0=
EXTT1=
EXTT2=
EXTT3=
EXTT4=
EXTT5=
EXTT6=
EXTT7=
EXTT8=
EXTT9=
EXTT10=
EXTT11=
EXTT12=
EXTT13=
EXTT14=
EXTT15=
EXTT16=
EXTT17=
PLAYORDER=
